<?xml version="1.0" encoding="UTF-8" standalone="no"?>
<svg
   xmlns:dc="http://purl.org/dc/elements/1.1/"
   xmlns:cc="http://creativecommons.org/ns#"
   xmlns:rdf="http://www.w3.org/1999/02/22-rdf-syntax-ns#"
   xmlns:svg="http://www.w3.org/2000/svg"
   xmlns="http://www.w3.org/2000/svg"
   viewBox="0 0 16 16"
   height="16"
   width="16"
   id="svg3776"
   version="1.1">
  <metadata
     id="metadata3782">
    <rdf:RDF>
      <cc:Work
         rdf:about="">
        <dc:format>image/svg+xml</dc:format>
        <dc:type
           rdf:resource="http://purl.org/dc/dcmitype/StillImage" />
        <dc:title></dc:title>
      </cc:Work>
    </rdf:RDF>
  </metadata>
  <defs
     id="defs3780" />
  <g
     transform="matrix(0.66666667,0,0,0.66666667,0.00566809,0.03270294)"
     id="g9417">
    <path
       d="M 19,0 H 5 C 3.897,0 3,0.897 3,2 v 20 c 0,1.103 0.897,2 2,2 h 14 c 1.103,0 2,-0.897 2,-2 V 2 C 21,0.897 20.103,0 19,0 Z m 0,22 H 5 V 2 h 14 v 20 c 0,0 0,0 0,0 z"
       id="path9379" />
    <path
       d="m 7,4 h 4 V 5 H 7 Z"
       id="path9381" />
    <path
       d="m 7,6 h 4 V 7 H 7 Z"
       id="path9383" />
    <path
       d="m 7,12 h 10 v 1 H 7 Z"
       id="path9385" />
    <path
       d="m 7,14 h 9 v 1 H 7 Z"
       id="path9387" />
    <path
       d="m 7,8 h 4 V 9 H 7 Z"
       id="path9389" />
    <path
       d="m 7,16 h 10 v 1 H 7 Z"
       id="path9391" />
    <path
       d="m 7,18 h 10 v 1 H 7 Z"
       id="path9393" />
    <path
       d="m 16.5,4 h -4 C 12.225,4 12,4.225 12,4.5 v 6 c 0,0.275 0.225,0.5 0.5,0.5 h 4 c 0.275,0 0.5,-0.225 0.5,-0.5 v -6 C 17,4.225 16.775,4 16.5,4 Z M 16,10 H 13 V 5 h 3 z"
       id="path9395" />
    <path
       d="m 7,10 h 4 v 1 H 7 Z"
       id="path9397" />
  </g>
</svg>
