<?xml version="1.0" encoding="UTF-8" standalone="no"?>
<svg
   xmlns:dc="http://purl.org/dc/elements/1.1/"
   xmlns:cc="http://creativecommons.org/ns#"
   xmlns:rdf="http://www.w3.org/1999/02/22-rdf-syntax-ns#"
   xmlns:svg="http://www.w3.org/2000/svg"
   xmlns="http://www.w3.org/2000/svg"
   version="1.1"
   id="svg3776"
   width="16"
   height="16"
   viewBox="0 0 16 16">
  <metadata
     id="metadata3782">
    <rdf:RDF>
      <cc:Work
         rdf:about="">
        <dc:format>image/svg+xml</dc:format>
        <dc:type
           rdf:resource="http://purl.org/dc/dcmitype/StillImage" />
        <dc:title></dc:title>
      </cc:Work>
    </rdf:RDF>
  </metadata>
  <defs
     id="defs3780" />
  <g
     id="g9561"
     transform="matrix(0.66666667,0,0,0.66666667,0.05192895,0.01839334)">
    <path
       id="path9538"
       d="M 22,0 H 2 C 0.897,0 0,0.897 0,2 v 20 c 0,1.103 0.897,2 2,2 h 20 c 1.103,0 2,-0.897 2,-2 V 2 C 24,0.897 23.103,0 22,0 Z m 0,22 H 2 V 2 h 20 v 20 c 0.003,0 0,0 0,0 z" />
    <path
       id="path9540"
       d="M 20.5,3 H 3.5 C 3.225,3 3,3.225 3,3.5 v 17 C 3,20.775 3.225,21 3.5,21 h 17 C 20.775,21 21,20.775 21,20.5 V 3.5 C 21,3.225 20.775,3 20.5,3 Z M 20,20 H 4 V 4 h 16 z" />
    <path
       id="path9542"
       d="m 8.5,15.206 0.706,-0.706 -2,-2 2,-2 L 8.5,9.794 6.147,12.147 c -0.194,0.194 -0.194,0.513 0,0.706 z" />
    <path
       id="path9544"
       d="m 15.5,15.206 2.353,-2.353 c 0.194,-0.194 0.194,-0.513 0,-0.706 L 15.5,9.794 14.794,10.5 l 2,2 -2,2 z" />
    <path
       id="path9546"
       d="m 9.842,15.764 3.394,-7.919 0.919,0.394 -3.394,7.919 z" />
  </g>
  <path
     id="path3879"
     d="M 0.82602793,15.843178 C 0.48356502,15.68766 0.2245607,15.360097 0.12448186,14.955932 0.07080157,14.739146 0.05460956,12.678837 0.06853633,7.8372881 L 0.08813559,1.0237288 0.24977744,0.74161539 C 0.43128844,0.42482439 0.65643715,0.23745956 0.99655749,0.12015809 1.1668565,0.06142499 3.0171666,0.04067797 8.084941,0.04067797 h 6.857927 l 0.335725,0.16729831 c 0.471214,0.23481611 0.684728,0.58393674 0.740631,1.21101842 0.02383,0.2673495 0.03383,3.4301578 0.02222,7.0284629 -0.0211,6.5392024 -0.02118,6.5425044 -0.166438,6.8135594 -0.178372,0.332848 -0.32802,0.472389 -0.651586,0.607584 -0.219159,0.09157 -1.094752,0.104099 -7.1839592,0.102792 -6.6261261,-0.0014 -6.946786,-0.0071 -7.21343787,-0.128215 z M 14.766102,8.0067797 V 1.3288136 H 8.0542373 1.3423729 v 6.6779661 6.6779663 h 6.7118644 6.7118647 z"
     style="fill:#cccccc;stroke-width:0.06779661" />
  <path
     id="path3881"
     d="m 2.1946731,13.900242 c -0.095186,-0.09519 -0.1065375,-0.722224 -0.1065375,-5.8847457 0,-4.4037664 0.019352,-5.79756 0.081356,-5.8595641 0.1178868,-0.1178867 11.6516044,-0.1178867 11.7694914,0 0.062,0.062003 0.08136,1.4545388 0.08136,5.8538991 0,5.5062447 -0.0057,5.7777197 -0.123982,5.8847457 -0.113311,0.102544 -0.617686,0.112203 -5.8595645,0.112203 -5.1237698,0 -5.7469461,-0.01136 -5.8421193,-0.106538 z M 13.410169,8.040678 V 2.6847458 H 8.0542373 2.6983051 V 8.040678 13.39661 h 5.3559322 5.3559317 z"
     style="fill:#cccccc;stroke-width:0.06779661" />
  <path
     id="path3883"
     d="M 6.9525424,10.636748 C 6.8127119,10.580594 6.6983051,10.510035 6.6983051,10.47995 c 0,-0.03008 0.4964466,-1.2132502 1.1032146,-2.6292557 L 8.9047344,5.2761389 9.1574519,5.4057908 c 0.1389947,0.071308 0.2527176,0.1464821 0.2527176,0.1670524 0,0.031557 -2.1685222,5.1264688 -2.1944811,5.1559018 -0.0049,0.0056 -0.1233155,-0.03584 -0.263146,-0.092 z"
     style="fill:#cccccc;stroke-width:0.06779661" />
  <path
     id="path3885"
     d="M 10.13588,9.8856391 9.9548671,9.6967018 10.597773,9.0564696 c 0.353598,-0.3521278 0.642905,-0.6707701 0.642905,-0.7080941 0,-0.037324 -0.28093,-0.3499644 -0.624288,-0.6947567 L 9.9921013,7.0267238 10.189982,6.8201806 10.387863,6.6136373 11.187152,7.4108436 c 0.488518,0.4872456 0.799289,0.8499423 0.799289,0.9328411 0,0.082627 -0.310912,0.4473582 -0.795551,0.9332631 -0.437552,0.4386957 -0.8132,0.7976282 -0.834773,0.7976282 -0.02157,0 -0.120679,-0.085021 -0.220237,-0.1889369 z"
     style="fill:#cccccc;stroke-width:0.06779661" />
  <path
     id="path3887"
     d=""
     style="fill:#cccccc;stroke-width:0.06779661" />
  <path
     id="path3889"
     d="M 4.875939,9.2326273 C 4.170034,8.5185974 4.0539965,8.3718154 4.112194,8.2665256 4.1499369,8.1982416 4.5272805,7.7984172 4.9507354,7.378027 l 0.7699178,-0.7643459 0.1978601,0.2065214 0.19786,0.2065213 -0.6242884,0.626895 C 5.1487264,7.9984111 4.8677966,8.3110516 4.8677966,8.3483755 c 0,0.037324 0.2893075,0.3559663 0.6429054,0.7080941 L 6.1536075,9.6967018 5.9725942,9.8856391 c -0.099557,0.1039154 -0.1997499,0.1889369 -0.22265,0.1889369 -0.0229,0 -0.4162026,-0.3788768 -0.8740052,-0.8419487 z"
     style="fill:#cccccc;stroke-width:0.06779661" />
</svg>
