<?xml version="1.0" encoding="UTF-8" standalone="no"?>
<svg
   xmlns:dc="http://purl.org/dc/elements/1.1/"
   xmlns:cc="http://creativecommons.org/ns#"
   xmlns:rdf="http://www.w3.org/1999/02/22-rdf-syntax-ns#"
   xmlns:svg="http://www.w3.org/2000/svg"
   xmlns="http://www.w3.org/2000/svg"
   version="1.1"
   id="svg3776"
   width="16"
   height="16"
   viewBox="0 0 16 16">
  <metadata
     id="metadata3782">
    <rdf:RDF>
      <cc:Work
         rdf:about="">
        <dc:format>image/svg+xml</dc:format>
        <dc:type
           rdf:resource="http://purl.org/dc/dcmitype/StillImage" />
        <dc:title></dc:title>
      </cc:Work>
    </rdf:RDF>
  </metadata>
  <defs
     id="defs3780" />
  <g
     id="g9661"
     transform="matrix(0.66666667,0,0,0.66666667,2.101013e-5,-4e-8)">
    <path
       id="path9647"
       d="m 16.5,9 c 0.128,0 0.256,-0.05 0.353,-0.147 L 21.206,4.5 20.5,3.794 l -4,4 -2,-2 -0.706,0.706 2.353,2.353 C 16.244,8.95 16.372,9 16.5,9 Z" />
    <path
       id="path9649"
       d="M 24,6.5 C 24,2.916 21.084,0 17.5,0 15.956,0 14.538,0.541 13.422,1.441 12.678,1.013 12.056,0.591 11.653,0.244 11.278,-0.081 10.722,-0.081 10.347,0.244 9.503,0.972 7.869,1.916 6.181,2.647 4.168,3.519 2.328,4 1,4 0.731,4 0.475,4.109 0.288,4.3 0.101,4.491 -0.003,4.75 0,5.019 c 0.003,0.119 0.069,2.953 1.381,6.687 0.769,2.187 1.812,4.241 3.1,6.097 1.609,2.325 3.606,4.347 5.937,6.009 0.175,0.125 0.378,0.188 0.581,0.188 0.203,0 0.406,-0.063 0.581,-0.188 2.112,-1.506 3.956,-3.316 5.478,-5.372 1.253,-1.691 2.3,-3.563 3.112,-5.562 v 0 c 0.078,-0.191 0.15,-0.375 0.219,-0.559 2.137,-1.066 3.609,-3.272 3.609,-5.819 z M 17.5,1 C 20.531,1 23,3.469 23,6.5 23,9.531 20.531,12 17.5,12 14.469,12 12,9.531 12,6.5 12,3.469 14.469,1 17.5,1 Z M 15.503,12.687 C 14.359,15.09 12.719,17.334 11,18.843 7.997,16.206 5.425,11.484 5.037,7.905 7.55,7.383 9.371,6.261 11,5.111 11.044,5.142 11.087,5.174 11.131,5.202 11.047,5.621 11,6.055 11,6.499 c 0,2.888 1.894,5.341 4.503,6.188 z M 11,21.756 C 7.431,19.037 4.841,15.459 3.294,11.112 2.507,8.896 2.197,7.006 2.075,5.931 3.825,5.718 5.653,5.053 6.975,4.478 8.503,3.819 9.969,3.009 11,2.265 11.312,2.487 11.666,2.718 12.053,2.952 11.803,3.336 11.591,3.749 11.425,4.183 11.381,4.152 11.338,4.12 11.291,4.086 11.116,3.961 10.885,3.961 10.71,4.086 9.004,5.305 7.11,6.536 4.416,7.002 4.166,7.046 3.988,7.271 4.004,7.524 c 0.119,1.984 0.884,4.362 2.159,6.691 1.25,2.284 2.856,4.297 4.525,5.666 0.091,0.075 0.203,0.112 0.316,0.112 0.113,0 0.225,-0.038 0.316,-0.112 1.988,-1.631 3.903,-4.212 5.178,-6.963 0.328,0.05 0.663,0.078 1.003,0.078 0.153,0 0.303,-0.006 0.453,-0.016 -1.587,3.525 -3.922,6.469 -6.953,8.775 z" />
  </g>
  <path
     id="path3961"
     d="M 6.8328576,15.734893 C 5.8979896,15.105773 4.3294348,13.589275 3.5374633,12.548865 1.7467926,10.196468 0.63312576,7.5719498 0.15731369,4.5830508 0.00386955,3.6191639 0.01882001,3.1402616 0.20926688,2.918854 0.34564622,2.7603035 0.43740143,2.7312642 0.97197878,2.6774655 2.7220052,2.5013466 5.2028214,1.490146 6.7613973,0.31765196 7.2125749,-0.02176264 7.457579,-0.04152368 7.8037519,0.23357982 7.9372563,0.33967583 8.2466346,0.55688268 8.491259,0.71626169 L 8.9360305,1.0060418 9.2917437,0.76202047 c 0.7624513,-0.52304502 1.7008403,-0.76737958 2.6906203,-0.70057501 1.044671,0.07050933 1.933391,0.48528671 2.725281,1.27192414 1.198604,1.1906549 1.570846,2.9223419 0.971022,4.5172408 C 15.362123,6.6922812 14.670785,7.5350447 13.936704,7.974118 13.590391,8.1812563 13.556178,8.2271898 13.312706,8.8118902 12.189037,11.510382 9.95748,14.315313 7.7566407,15.795527 7.4086739,16.029558 7.255819,16.019525 6.8328576,15.734893 Z M 8.1774732,13.845737 C 9.4996725,12.722784 10.778133,11.082562 11.641887,9.4010115 11.837773,9.0196617 11.987805,8.6991037 11.975293,8.6886603 11.96278,8.6782176 11.733982,8.6502142 11.466852,8.6264312 L 10.981161,8.5831885 10.598868,9.3054888 C 9.9026597,10.620901 9.0021505,11.838626 8.0598888,12.738857 c -0.3982013,0.38044 -0.5949905,0.52216 -0.7250569,0.52216 -0.1319566,0 -0.3284231,-0.145883 -0.7532617,-0.559322 C 4.6772361,10.848458 3.1806528,8.0862631 2.7934967,5.7101704 2.7088961,5.1909521 2.694334,4.9434856 2.7437692,4.8651144 2.7852102,4.7994168 3.096213,4.6811564 3.5075342,4.5746889 4.6444743,4.2804001 5.2661752,3.9901728 6.5828379,3.1390515 7.2328081,2.7188955 7.3330651,2.6741851 7.477581,2.7400312 7.6311885,2.8100194 7.6507864,2.7924534 7.8263363,2.4274322 7.9286366,2.2147174 8.0141376,2.0140704 8.0163383,1.98155 8.0185417,1.9490296 7.865002,1.8227425 7.6751458,1.7009121 L 7.3299525,1.4794021 6.8615864,1.7829868 C 6.2130916,2.2033269 4.9189085,2.8461315 3.9876425,3.2104388 3.2121508,3.5138079 1.8142627,3.9050847 1.5059287,3.9050847 c -0.1524862,0 -0.1588387,0.016957 -0.1206398,0.3220339 0.1537897,1.2282484 0.6811083,3.0730746 1.2456132,4.3577817 0.9379074,2.1345027 2.585917,4.2962907 4.3011901,5.6421157 0.331482,0.260085 0.4220068,0.30207 0.5084746,0.235827 0.057858,-0.04432 0.3894657,-0.322022 0.7369064,-0.617106 z M 7.9169376,12.038266 C 8.5920386,11.343841 9.3123492,10.365497 9.8971227,9.3487268 10.150045,8.9089614 10.357508,8.5288847 10.358152,8.5041125 10.358762,8.4793403 10.094727,8.3310007 9.7713322,8.1744685 8.7687471,7.6891898 7.9968461,6.7948007 7.5655485,5.6186643 7.4501708,5.3040308 7.4188054,5.0473332 7.4058759,4.3118644 7.3956041,3.7275694 7.3645532,3.4021635 7.3200061,3.4119678 7.2816278,3.4204145 6.9963837,3.5927104 6.6861304,3.7948475 6.3758774,3.9969846 5.8404583,4.3034794 5.4963104,4.4759471 4.8754504,4.7870873 3.7506252,5.1932203 3.5097519,5.1932203 c -0.069013,0 -0.1411503,0.025358 -0.1603048,0.05635 -0.057951,0.093767 0.2179212,1.3213101 0.4398386,1.9571412 0.460532,1.319501 1.4006487,2.9928435 2.2968346,4.0882035 0.4420029,0.540237 1.1636173,1.288136 1.2428655,1.288136 0.032079,0 0.2966576,-0.245153 0.5879518,-0.544785 z M 12.427119,7.9382427 C 13.156803,7.7843634 13.712254,7.4786481 14.263247,6.9276542 15.626943,5.5639587 15.731805,3.4613649 14.509869,1.9826529 13.136374,0.32053361 10.596164,0.20036287 9.0787227,1.7257194 8.2810447,2.5275575 7.9432536,3.4174142 8.0069424,4.5491525 8.0843614,5.9248887 8.8270949,7.044979 10.054237,7.6366047 10.885272,8.037261 11.5543,8.1223071 12.427119,7.9382427 Z"
     style="fill:#cccccc;stroke-width:0.06779661" />
  <path
     id="path3963"
     d="M 10.055872,5.1270628 9.2460672,4.3151426 9.4439879,4.108558 9.6419086,3.9019733 10.289964,4.5475968 c 0.35643,0.355093 0.677732,0.6456235 0.714003,0.6456235 0.03627,0 0.652691,-0.5861648 1.369822,-1.3025884 l 1.303875,-1.3025884 0.207124,0.198438 0.207125,0.1984381 -1.475887,1.4770317 c -0.950881,0.951618 -1.524703,1.4770318 -1.613118,1.4770318 -0.08506,0 -0.445108,-0.3086817 -0.947036,-0.8119203 z"
     style="fill:#cccccc;stroke-width:0.06779661" />
</svg>
