<?xml version="1.0" encoding="UTF-8" standalone="no"?>
<svg
   xmlns:dc="http://purl.org/dc/elements/1.1/"
   xmlns:cc="http://creativecommons.org/ns#"
   xmlns:rdf="http://www.w3.org/1999/02/22-rdf-syntax-ns#"
   xmlns:svg="http://www.w3.org/2000/svg"
   xmlns="http://www.w3.org/2000/svg"
   version="1.1"
   id="svg3776"
   width="16"
   height="16"
   viewBox="0 0 16 16">
  <metadata
     id="metadata3782">
    <rdf:RDF>
      <cc:Work
         rdf:about="">
        <dc:format>image/svg+xml</dc:format>
        <dc:type
           rdf:resource="http://purl.org/dc/dcmitype/StillImage" />
        <dc:title></dc:title>
      </cc:Work>
    </rdf:RDF>
  </metadata>
  <defs
     id="defs3780" />
  <g
     id="g9765"
     transform="scale(0.66666667)">
    <path
       id="path9745"
       d="m 19,3 h -1 v 2 h 1 V 22 H 5 V 5 H 6 V 3 H 5 C 3.897,3 3,3.897 3,5 v 17 c 0,1.103 0.897,2 2,2 h 14 c 1.103,0 2,-0.897 2,-2 V 5 C 21,3.897 20.103,3 19,3 Z" />
    <path
       id="path9747"
       d="m 7.5,5 h 9 C 16.775,5 17,4.775 17,4.5 v -1 C 17,2.672 16.328,2 15.5,2 H 14.941 C 14.822,1.506 14.525,1.053 14.082,0.697 13.519,0.247 12.782,0 12.001,0 11.22,0 10.482,0.247 9.92,0.697 9.473,1.053 9.179,1.506 9.061,2 H 8.502 c -0.828,0 -1.5,0.672 -1.5,1.5 v 1 c 0,0.275 0.225,0.5 0.5,0.5 z M 8,3.5 C 8,3.225 8.225,3 8.5,3 h 1 C 9.775,3 10,2.775 10,2.5 10,2.122 10.194,1.756 10.544,1.478 10.928,1.169 11.447,1 12,1 12.553,1 13.072,1.169 13.456,1.478 13.806,1.759 14,2.122 14,2.5 14,2.775 14.225,3 14.5,3 h 1 C 15.775,3 16,3.225 16,3.5 V 4 H 8 Z" />
    <path
       id="path9749"
       d="m 10,9 h 8 v 1 h -8 z m 0,4 h 8 v 1 h -8 z m 0,4 h 8 v 1 h -8 z" />
    <path
       id="path9751"
       d="M 7.5,11 C 8.328,11 9,10.328 9,9.5 9,8.672 8.328,8 7.5,8 6.672,8 6,8.672 6,9.5 6,10.328 6.672,11 7.5,11 Z m 0,-2 C 7.775,9 8,9.225 8,9.5 8,9.775 7.775,10 7.5,10 7.225,10 7,9.775 7,9.5 7,9.225 7.225,9 7.5,9 Z m 0,3 C 6.672,12 6,12.672 6,13.5 6,14.328 6.672,15 7.5,15 8.328,15 9,14.328 9,13.5 9,12.672 8.328,12 7.5,12 Z m 0,2 C 7.225,14 7,13.775 7,13.5 7,13.225 7.225,13 7.5,13 7.775,13 8,13.225 8,13.5 8,13.775 7.775,14 7.5,14 Z m 0,2 C 6.672,16 6,16.672 6,17.5 6,18.328 6.672,19 7.5,19 8.328,19 9,18.328 9,17.5 9,16.672 8.328,16 7.5,16 Z m 0,2 C 7.225,18 7,17.775 7,17.5 7,17.225 7.225,17 7.5,17 7.775,17 8,17.225 8,17.5 8,17.775 7.775,18 7.5,18 Z" />
  </g>
  <path
     id="path4039"
     d="M 2.7598159,15.815134 C 2.5954765,15.728373 2.3694915,15.527443 2.2576271,15.368624 L 2.0542373,15.079861 V 9.0348454 c 0,-6.0006094 0.00104,-6.047007 0.1417318,-6.3162013 C 2.4147888,2.2999594 2.8532654,2.0616709 3.4787328,2.0215309 L 3.9864407,1.9889482 V 2.6419317 3.2949153 H 3.6474576 3.3084746 V 8.9898305 14.684746 H 7.9864407 12.664407 V 8.9898305 3.2949153 H 12.359322 12.054237 V 2.6508475 2.0067797 l 0.322034,3.783e-4 c 0.684536,8.037e-4 1.19636,0.2664818 1.442374,0.7487091 0.133596,0.2618701 0.135714,0.3754528 0.118019,6.3287824 l -0.01802,6.0621265 -0.20732,0.26051 c -0.114026,0.143281 -0.341677,0.329155 -0.505891,0.413053 l -0.298571,0.152542 H 7.9827386 3.0586147 Z"
     style="fill:#cccccc;stroke-width:0.06779661" />
  <path
     id="path4041"
     d="M 4.8135593,3.2135593 C 4.7637093,3.1637093 4.7323013,2.9208507 4.7324563,2.5864407 4.732843,1.7536383 5.0254461,1.3966102 5.707584,1.3966102 c 0.2970616,0 0.308593,-0.00824 0.4948922,-0.3535215 0.737631,-1.36711452 3.0606041,-1.30385493 3.6458446,0.099284 0.104018,0.2493876 0.1130371,0.2542373 0.4728112,0.2542373 0.638477,0 0.987342,0.4319972 0.987342,1.2226185 0,0.7412093 0.317774,0.6756866 -3.2769616,0.6756866 -2.3491804,0 -3.1570214,-0.020424 -3.2179531,-0.081356 z M 10.698305,2.4604156 c 0,-0.3880868 -0.120825,-0.4750403 -0.7191209,-0.5175262 C 9.4585597,1.9059191 9.4454849,1.9005957 9.3867854,1.7016949 9.1759606,0.98732359 8.8635748,0.72445953 8.1581541,0.66783512 7.4012021,0.60707426 6.7563747,0.97249851 6.6581439,1.5178921 c -0.068195,0.3786294 -0.1302387,0.421091 -0.6152896,0.421091 -0.371943,0 -0.4597306,0.024272 -0.6018682,0.1664098 -0.103826,0.103826 -0.1664098,0.2440602 -0.1664098,0.3728813 v 0.2064716 h 2.7118644 2.7118643 z"
     style="fill:#cccccc;stroke-width:0.06779661" />
  <path
     id="path4043"
     d="M 4.5627119,7.1687756 C 4.2278827,6.9619534 4.1043139,6.775272 4.0707026,6.4254735 4.0126279,5.8210783 4.3971476,5.397117 5.0033898,5.397117 c 0.9782604,0 1.3026546,1.2477296 0.4582468,1.7625713 -0.2768426,0.168793 -0.6345199,0.1724088 -0.8989247,0.00909 z M 5.2610169,6.6033898 C 5.4046885,6.4597182 5.3575536,6.1554455 5.1728814,6.0344436 5.0158732,5.9315679 4.9909065,5.9315679 4.8338983,6.0344436 4.7204587,6.1087721 4.6644068,6.20776 4.6644068,6.3337663 c 0,0.2354955 0.1115367,0.3509795 0.338983,0.3509795 0.096949,0 0.2128814,-0.03661 0.2576271,-0.081356 z"
     style="fill:#cccccc;stroke-width:0.06779661" />
  <path
     id="path4045"
     d="M 4.4812575,9.8061345 C 3.6928142,9.3253925 4.0829515,8.0398733 5.0169722,8.0409314 5.477678,8.0414533 5.9517729,8.5172393 5.9522889,8.9795845 5.953126,9.72953 5.1217515,10.196667 4.4812575,9.8061345 Z M 5.2610169,9.2474576 c 0.1048758,-0.1048758 0.1048758,-0.4103784 0,-0.5152542 -0.1048757,-0.1048758 -0.4103784,-0.1048758 -0.5152542,0 -0.1048758,0.1048758 -0.1048758,0.4103784 0,0.5152542 0.044746,0.044746 0.160678,0.081356 0.2576271,0.081356 0.096949,0 0.2128814,-0.03661 0.2576271,-0.081356 z"
     style="fill:#cccccc;stroke-width:0.06779661" />
  <path
     id="path4047"
     d=""
     style="fill:#cccccc;stroke-width:0.06779661" />
  <path
     id="path4049"
     d="m 4.5979616,12.535753 c -0.8619014,-0.446387 -0.6419353,-1.709597 0.3180995,-1.826764 0.5236581,-0.06391 1.036724,0.407396 1.0362278,0.951884 -6.44e-4,0.709013 -0.7455155,1.19019 -1.3543273,0.87488 z M 5.2358353,11.93414 c 0.2065516,-0.206551 0.065866,-0.639225 -0.2078468,-0.639225 -0.227858,0 -0.3635817,0.138828 -0.3635817,0.371898 0,0.339431 0.3401804,0.498576 0.5714285,0.267327 z"
     style="fill:#cccccc;stroke-width:0.06779661" />
  <path
     id="path4051"
     d="m 6.6983051,11.667797 v -0.305085 h 2.6440678 2.6440681 v 0.305085 0.305084 H 9.3423729 6.6983051 Z"
     style="fill:#cccccc;stroke-width:0.06779661" />
  <path
     id="path4053"
     d="M 6.6983051,9.0237288 V 8.7186441 H 9.3423729 11.986441 V 9.0237288 9.3288136 H 9.3423729 6.6983051 Z"
     style="fill:#cccccc;stroke-width:0.06779661" />
  <path
     id="path4055"
     d="M 6.6983051,6.3118644 V 6.0067797 H 9.3423729 11.986441 V 6.3118644 6.6169492 H 9.3423729 6.6983051 Z"
     style="fill:#cccccc;stroke-width:0.06779661" />
</svg>
