<?xml version="1.0" encoding="UTF-8" standalone="no"?>
<svg
   xmlns:dc="http://purl.org/dc/elements/1.1/"
   xmlns:cc="http://creativecommons.org/ns#"
   xmlns:rdf="http://www.w3.org/1999/02/22-rdf-syntax-ns#"
   xmlns:svg="http://www.w3.org/2000/svg"
   xmlns="http://www.w3.org/2000/svg"
   viewBox="0 0 16 16"
   height="16"
   width="16"
   id="svg3776"
   version="1.1">
  <metadata
     id="metadata3782">
    <rdf:RDF>
      <cc:Work
         rdf:about="">
        <dc:format>image/svg+xml</dc:format>
        <dc:type
           rdf:resource="http://purl.org/dc/dcmitype/StillImage" />
        <dc:title></dc:title>
      </cc:Work>
    </rdf:RDF>
  </metadata>
  <defs
     id="defs3780" />
  <path
     style="stroke-width:0.66666663"
     d="M 15.666667,2.6666332 H 14.666666 V 1.9999666 c 0,-0.2039999 -0.094,-0.398 -0.254,-0.5226667 C 14.252,1.3499666 14.042,1.3046333 13.843999,1.3519667 13.194,1.5079666 12.475333,1.5746333 11.781333,1.6373 10.889334,1.7186329 10.046,1.7953 9.296,2.0519666 8.766666,2.2332999 8.338,2.4872999 8,2.8206332 7.664667,2.4872999 7.235333,2.2332999 6.7039998,2.0519666 5.9539998,1.7959667 5.1099998,1.7186333 4.2186666,1.6373 3.5246665,1.5746336 2.8059999,1.5079666 2.156,1.3519667 c -0.198,-0.048 -0.408,-0.002 -0.5686666,0.1253332 -0.1606667,0.1253334 -0.254,0.3186668 -0.254,0.5226667 v 0.6666666 h -1 C 0.15,2.6666332 0,2.8166333 0,2.9999666 v 9.3333314 c 0,0.164667 0.1206667,0.304001 0.2833334,0.329334 0.502,0.07533 1.1126666,0.127334 1.7559999,0.181334 1.9539999,0.162667 4.6273331,0.387333 4.6273331,1.489333 0,0.183334 0.15,0.333334 0.3333334,0.333334 H 9 c 0.183333,0 0.333333,-0.15 0.333333,-0.333334 0,-1.102 2.672667,-1.327333 4.627333,-1.489333 0.646,-0.054 1.254001,-0.104 1.756,-0.181334 C 15.879333,12.637302 16,12.497965 16,12.333298 V 2.9999666 C 16,2.8166333 15.85,2.6666332 15.666667,2.6666332 Z M 11.902,2.9646333 c 0.470667,-0.044 0.951999,-0.087333 1.431333,-0.1580001 v 7.3166658 c -0.506,0.08533 -1.035333,0.135334 -1.552,0.181334 -0.891999,0.08133 -1.735333,0.158 -2.485333,0.414667 -0.227334,0.07733 -0.437334,0.168666 -0.629333,0.275332 V 4.1466331 C 9.116667,3.2652999 10.204,3.1219665 11.902,2.9652999 Z M 2.6666666,2.8059666 c 0.4793333,0.072666 0.9606666,0.1166666 1.4313332,0.158 1.7,0.154 2.7853332,0.298 3.2353332,1.1813332 v 6.8459992 c -0.192,-0.105999 -0.3999999,-0.196 -0.6293332,-0.275333 -0.75,-0.255999 -1.594,-0.333333 -2.4853332,-0.414666 -0.5166667,-0.048 -1.046,-0.096 -1.552,-0.181334 V 2.8052999 Z M 15.333333,12.041966 c -0.422667,0.052 -0.914667,0.094 -1.429333,0.137333 -1.116667,0.094 -2.381334,0.2 -3.362667,0.462666 C 9.978667,12.791966 9.558,12.981299 9.253999,13.216633 8.966667,13.437299 8.785333,13.699966 8.708,13.999966 H 7.293333 c -0.07533,-0.3 -0.2579999,-0.562667 -0.5459999,-0.783333 -0.304,-0.235334 -0.7273333,-0.422667 -1.2873333,-0.574668 C 4.4786665,12.377299 3.2119999,12.273299 2.0973334,12.179299 1.5826667,12.135299 1.0913333,12.095966 0.6680001,12.041966 V 3.3339665 h 0.6666666 v 7.3333325 c 0,0.308 0.2106667,0.575334 0.5106666,0.648 0.746,0.179333 1.5126666,0.25 2.2539999,0.316666 1.7686666,0.160667 2.8726665,0.310667 3.2873328,1.294001 0.104001,0.248 0.346,0.408 0.614667,0.408 0.268666,0 0.510667,-0.160667 0.614666,-0.408 0.414667,-0.983334 1.518668,-1.131334 3.287334,-1.294001 0.742,-0.06667 1.508,-0.137333 2.254,-0.316666 0.3,-0.07267 0.510666,-0.339333 0.510666,-0.648 V 3.3339665 h 0.666668 v 8.7079995 z"
     id="path9847" />
</svg>
