<?xml version="1.0" encoding="UTF-8" standalone="no"?>
<svg
   xmlns:dc="http://purl.org/dc/elements/1.1/"
   xmlns:cc="http://creativecommons.org/ns#"
   xmlns:rdf="http://www.w3.org/1999/02/22-rdf-syntax-ns#"
   xmlns:svg="http://www.w3.org/2000/svg"
   xmlns="http://www.w3.org/2000/svg"
   viewBox="0 0 16 16"
   height="16"
   width="16"
   id="svg3776"
   version="1.1">
  <metadata
     id="metadata3782">
    <rdf:RDF>
      <cc:Work
         rdf:about="">
        <dc:format>image/svg+xml</dc:format>
        <dc:type
           rdf:resource="http://purl.org/dc/dcmitype/StillImage" />
        <dc:title></dc:title>
      </cc:Work>
    </rdf:RDF>
  </metadata>
  <defs
     id="defs3780" />
  <g
     transform="matrix(0.66666667,0,0,0.66666667,-6.6670667e-4,9.4147399e-4)"
     id="g9948">
    <path
       d="M 23.5,18 H 20.644 L 21.9,17.372 c 0.987,-0.494 1.387,-1.697 0.894,-2.681 L 16.997,3.104 C 16.76,2.626 16.347,2.27 15.841,2.101 15.335,1.932 14.791,1.97 14.316,2.21 L 12.104,3.316 C 11.117,3.81 10.716,5.013 11.21,5.997 V 6 H 7.001 V 3 c 0,-0.553 -0.447,-1 -1,-1 h -4 c -0.553,0 -1,0.447 -1,1 v 14 c 0,0.553 0.447,1 1,1 h -1.5 c -0.275,0 -0.5,0.225 -0.5,0.5 v 3 c 0,0.275 0.225,0.5 0.5,0.5 h 23 c 0.275,0 0.5,-0.225 0.5,-0.5 v -3 c 0,-0.275 -0.225,-0.5 -0.5,-0.5 z m -4.709,-1.309 -4.016,-8.034 2.212,-1.106 4.016,8.034 -2.213,1.106 z M 15.209,3.997 16.537,6.656 14.324,7.762 12.996,5.103 15.208,3.997 Z m 1.794,13.587 c 0.075,0.153 0.169,0.291 0.278,0.416 H 12 c 0.553,0 1,-0.447 1,-1 V 9.581 Z M 5,16 H 3 V 15 H 5 Z M 5,14 H 3 V 6 h 2 z m 6,-6 v 8 H 7 V 8 Z M 5,4 V 5 H 3 V 4 Z M 23,21 H 1 v -2 h 22 z"
       id="path9934" />
    <path
       d="m 8,9 h 2 v 1 H 8 Z"
       id="path9936" />
  </g>
</svg>
