<?xml version="1.0" encoding="UTF-8" standalone="no"?>
<svg
   xmlns:dc="http://purl.org/dc/elements/1.1/"
   xmlns:cc="http://creativecommons.org/ns#"
   xmlns:rdf="http://www.w3.org/1999/02/22-rdf-syntax-ns#"
   xmlns:svg="http://www.w3.org/2000/svg"
   xmlns="http://www.w3.org/2000/svg"
   viewBox="0 0 16 16"
   height="16"
   width="16"
   id="svg3776"
   version="1.1">
  <metadata
     id="metadata3782">
    <rdf:RDF>
      <cc:Work
         rdf:about="">
        <dc:format>image/svg+xml</dc:format>
        <dc:type
           rdf:resource="http://purl.org/dc/dcmitype/StillImage" />
        <dc:title></dc:title>
      </cc:Work>
    </rdf:RDF>
  </metadata>
  <defs
     id="defs3780" />
  <g
     transform="matrix(0.72727273,0,0,0.72727273,-0.72727276,-0.72727276)"
     id="g10057">
    <path
       d="M 22.5,7 H 19 V 5 C 19,3.897 18.103,3 17,3 H 3 C 1.897,3 1,3.897 1,5 v 13 c 0,1.653 1.347,3 3,3 h 16 c 0.794,0 1.541,-0.306 2.106,-0.866 C 22.681,19.565 23,18.809 23,18 V 7.5 C 23,7.225 22.775,7 22.5,7 Z M 4,19 C 3.45,19 3,18.55 3,18 V 5 h 14 v 12.969 c 0,0.359 0.063,0.706 0.181,1.031 z m 17,-1 c 0,0.269 -0.106,0.522 -0.297,0.712 C 20.512,18.902 20.256,19.003 19.987,19 19.443,18.994 19,18.531 19,17.969 V 8 h 2 z"
       id="path10034" />
    <path
       d="M 15.5,6 H 4.5 C 4.225,6 4,6.225 4,6.5 v 4 C 4,10.775 4.225,11 4.5,11 h 11 c 0.275,0 0.5,-0.225 0.5,-0.5 v -4 C 16,6.225 15.775,6 15.5,6 Z M 15,10 H 5 V 7 h 10 z"
       id="path10036" />
    <path
       d="m 4,12 h 11 v 1 H 4 Z"
       id="path10038" />
    <path
       d="m 4,14 h 9 v 1 H 4 Z"
       id="path10040" />
    <path
       d="m 4,16 h 11 v 1 H 4 Z"
       id="path10042" />
  </g>
</svg>
