<?xml version="1.0" encoding="UTF-8" standalone="no"?>
<svg
   xmlns:dc="http://purl.org/dc/elements/1.1/"
   xmlns:cc="http://creativecommons.org/ns#"
   xmlns:rdf="http://www.w3.org/1999/02/22-rdf-syntax-ns#"
   xmlns:svg="http://www.w3.org/2000/svg"
   xmlns="http://www.w3.org/2000/svg"
   version="1.1"
   id="svg3776"
   width="16"
   height="16"
   viewBox="0 0 16 16">
  <metadata
     id="metadata3782">
    <rdf:RDF>
      <cc:Work
         rdf:about="">
        <dc:format>image/svg+xml</dc:format>
        <dc:type
           rdf:resource="http://purl.org/dc/dcmitype/StillImage" />
        <dc:title></dc:title>
      </cc:Work>
    </rdf:RDF>
  </metadata>
  <defs
     id="defs3780" />
  <g
     id="g10057"
     transform="matrix(0.72727273,0,0,0.72727273,-0.72727276,-0.72727276)">
    <path
       id="path10034"
       d="M 22.5,7 H 19 V 5 C 19,3.897 18.103,3 17,3 H 3 C 1.897,3 1,3.897 1,5 v 13 c 0,1.653 1.347,3 3,3 h 16 c 0.794,0 1.541,-0.306 2.106,-0.866 C 22.681,19.565 23,18.809 23,18 V 7.5 C 23,7.225 22.775,7 22.5,7 Z M 4,19 C 3.45,19 3,18.55 3,18 V 5 h 14 v 12.969 c 0,0.359 0.063,0.706 0.181,1.031 z m 17,-1 c 0,0.269 -0.106,0.522 -0.297,0.712 C 20.512,18.902 20.256,19.003 19.987,19 19.443,18.994 19,18.531 19,17.969 V 8 h 2 z" />
    <path
       id="path10036"
       d="M 15.5,6 H 4.5 C 4.225,6 4,6.225 4,6.5 v 4 C 4,10.775 4.225,11 4.5,11 h 11 c 0.275,0 0.5,-0.225 0.5,-0.5 v -4 C 16,6.225 15.775,6 15.5,6 Z M 15,10 H 5 V 7 h 10 z" />
    <path
       id="path10038"
       d="m 4,12 h 11 v 1 H 4 Z" />
    <path
       id="path10040"
       d="m 4,14 h 9 v 1 H 4 Z" />
    <path
       id="path10042"
       d="m 4,16 h 11 v 1 H 4 Z" />
  </g>
  <path
     id="path4275"
     d="M 1.3695601,14.341311 C 0.95231647,14.180808 0.463006,13.717088 0.24604022,13.27655 L 0.08813559,12.955932 0.06923813,7.8033898 C 0.04801449,2.0166004 0.0268754,2.282657 0.54297882,1.8408917 0.71944786,1.6898408 0.94177329,1.5789076 1.1647643,1.5306409 1.4069723,1.4782147 3.0996709,1.4619768 6.7661017,1.4769079 l 5.2542373,0.021397 0.320232,0.1882426 c 0.207659,0.1220685 0.386406,0.3008156 0.508474,0.5084745 0.176829,0.3008145 0.189665,0.376757 0.211694,1.2524354 l 0.02345,0.9322034 h 1.315533 c 1.225137,0 1.32485,0.00932 1.451125,0.1355932 0.132466,0.1324649 0.135594,0.2259887 0.135594,4.0535526 0,4.3097614 -0.0089,4.4190614 -0.409236,5.0008654 -0.238196,0.346205 -0.524072,0.578611 -0.948625,0.771191 -0.297713,0.135045 -0.416373,0.137478 -6.608241,0.135471 -6.0984438,-0.002 -6.3164145,-0.0064 -6.6507789,-0.135023 z m 10.3731439,-1.36843 c -0.03089,-0.0839 -0.0659,-2.387288 -0.0778,-5.1186437 L 11.643254,2.8881356 H 6.526712 1.4101695 v 4.7695442 c 0,3.3722562 0.022456,4.8339632 0.076654,4.9894342 0.04216,0.120939 0.1718206,0.27792 0.2881356,0.348846 0.2027,0.123602 0.415207,0.128967 5.1176938,0.12921 l 4.9062121,2.71e-4 -0.05616,-0.152542 z m 2.633567,-0.115527 0.186441,-0.208646 V 8.8531675 5.0576271 h -0.745763 -0.745763 v 3.7321804 c 0,3.1986785 0.01466,3.7605275 0.102548,3.9304845 0.233647,0.451825 0.857713,0.522954 1.202537,0.137062 z"
     style="fill:#cccccc;stroke-width:0.06779661" />
  <path
     id="path4277"
     d="m 2.3050847,7.1457627 c -0.1155538,-0.1155538 -0.1155538,-3.247158 0,-3.3627119 0.061521,-0.06152 1.1022948,-0.081356 4.2688011,-0.081356 4.0706172,0 4.1894032,0.00366 4.2576272,0.1311362 0.04223,0.078915 0.07018,0.720864 0.07018,1.6120334 0,1.2306012 -0.01784,1.5063645 -0.105539,1.6315758 l -0.10554,0.1506783 H 6.5385285 c -3.1390061,0 -4.1719381,-0.01985 -4.2334438,-0.081356 z M 10.223729,5.4305085 V 4.3118644 H 6.5627119 2.9016949 v 1.1186441 1.118644 h 3.661017 3.6610171 z"
     style="fill:#cccccc;stroke-width:0.06779661" />
  <path
     id="path4279"
     d="M 2.2237288,8.379661 V 8.040678 H 6.1898305 10.155932 V 8.379661 8.7186441 H 6.1898305 2.2237288 Z"
     style="fill:#cccccc;stroke-width:0.06779661" />
  <path
     id="path4281"
     d="m 2.2237288,9.8033898 v -0.338983 h 3.220339 3.220339 v 0.338983 0.3389832 h -3.220339 -3.220339 z"
     style="fill:#cccccc;stroke-width:0.06779661" />
  <path
     id="path4283"
     d="m 2.2237288,11.294915 v -0.338983 h 3.9661017 3.9661015 v 0.338983 0.338983 H 6.1898305 2.2237288 Z"
     style="fill:#cccccc;stroke-width:0.06779661" />
</svg>
