<?xml version="1.0" encoding="UTF-8" standalone="no"?>
<svg
   xmlns:dc="http://purl.org/dc/elements/1.1/"
   xmlns:cc="http://creativecommons.org/ns#"
   xmlns:rdf="http://www.w3.org/1999/02/22-rdf-syntax-ns#"
   xmlns:svg="http://www.w3.org/2000/svg"
   xmlns="http://www.w3.org/2000/svg"
   version="1.1"
   id="svg3776"
   width="16"
   height="16"
   viewBox="0 0 16 16">
  <metadata
     id="metadata3782">
    <rdf:RDF>
      <cc:Work
         rdf:about="">
        <dc:format>image/svg+xml</dc:format>
        <dc:type
           rdf:resource="http://purl.org/dc/dcmitype/StillImage" />
        <dc:title></dc:title>
      </cc:Work>
    </rdf:RDF>
  </metadata>
  <defs
     id="defs3780" />
  <g
     id="g9417"
     transform="matrix(0.66666667,0,0,0.66666667,0.00566809,0.03270294)">
    <path
       id="path9379"
       d="M 19,0 H 5 C 3.897,0 3,0.897 3,2 v 20 c 0,1.103 0.897,2 2,2 h 14 c 1.103,0 2,-0.897 2,-2 V 2 C 21,0.897 20.103,0 19,0 Z m 0,22 H 5 V 2 h 14 v 20 c 0,0 0,0 0,0 z" />
    <path
       id="path9381"
       d="m 7,4 h 4 V 5 H 7 Z" />
    <path
       id="path9383"
       d="m 7,6 h 4 V 7 H 7 Z" />
    <path
       id="path9385"
       d="m 7,12 h 10 v 1 H 7 Z" />
    <path
       id="path9387"
       d="m 7,14 h 9 v 1 H 7 Z" />
    <path
       id="path9389"
       d="m 7,8 h 4 V 9 H 7 Z" />
    <path
       id="path9391"
       d="m 7,16 h 10 v 1 H 7 Z" />
    <path
       id="path9393"
       d="m 7,18 h 10 v 1 H 7 Z" />
    <path
       id="path9395"
       d="m 16.5,4 h -4 C 12.225,4 12,4.225 12,4.5 v 6 c 0,0.275 0.225,0.5 0.5,0.5 h 4 c 0.275,0 0.5,-0.225 0.5,-0.5 v -6 C 17,4.225 16.775,4 16.5,4 Z M 16,10 H 13 V 5 h 3 z" />
    <path
       id="path9397"
       d="m 7,10 h 4 v 1 H 7 Z" />
  </g>
  <path
     id="path80"
     d="M 3.2229117,16.018327 C 3.0224189,15.987598 2.9263121,15.960716 2.7933174,15.898167 2.492892,15.756873 2.2942988,15.563829 2.153648,15.276372 2.0083666,14.979452 2.020644,15.646612 2.0203299,8.0317688 2.0200145,0.38296233 2.0064664,1.0907192 2.1592384,0.775179 2.2232551,0.64295695 2.2698916,0.5806593 2.4109483,0.43894179 2.5532433,0.29598016 2.6129213,0.2510582 2.7459796,0.18675045 3.0529185,0.03840533 2.5983334,0.05020644 8.0057279,0.05020644 c 5.4071421,0 4.9523421,-0.01180045 5.2601431,0.13648213 0.131631,0.0634131 0.193278,0.10925329 0.326311,0.24264481 0.173107,0.17357366 0.267525,0.32041041 0.345153,0.53677641 l 0.04453,0.12410501 0.0049,6.8889564 c 0.0055,7.6755148 0.01746,6.9980978 -0.12895,7.2972008 -0.140855,0.287751 -0.339949,0.48116 -0.639702,0.621438 -0.279982,0.131026 0.124475,0.121225 -5.1455843,0.124682 -2.6410501,0.0017 -4.823389,-1.33e-4 -4.849642,-0.0042 z M 12.673986,8.0305489 V 1.3479714 H 8.0057279 3.3374702 v 6.6825775 6.6825771 h 4.6682577 4.6682581 z"
     style="fill:#cccccc;stroke-width:0.01909308" />
  <path
     id="path82"
     d="M 4.6739857,3.0281623 V 2.70358 h 1.326969 1.3269689 V 3.0281623 3.3527446 H 6.0009547 4.6739857 Z"
     style="fill:#cccccc;stroke-width:0.01909308" />
  <path
     id="path84"
     d="M 4.6739857,4.3646778 V 4.0400955 h 1.326969 1.3269689 V 4.3646778 4.6892601 H 6.0009547 4.6739857 Z"
     style="fill:#cccccc;stroke-width:0.01909308" />
  <path
     id="path86"
     d="M 8.2157518,7.3264611 C 8.1272962,7.285339 8.0645525,7.2225613 8.0356394,7.1462511 8.0216725,7.1093884 8.0152745,6.4448649 8.0152745,5.0310793 c 0,-1.6978517 0.00459,-2.0724159 0.026043,-2.1237535 0.032946,-0.078851 0.1268543,-0.1585202 0.2182538,-0.1851612 0.048605,-0.014167 0.5038557,-0.018807 1.4549868,-0.014828 l 1.3842489,0.00579 0.07064,0.043922 c 0.03885,0.024157 0.0904,0.075708 0.114559,0.1145585 l 0.04392,0.070637 v 2.0906922 2.0906921 l -0.04392,0.070636 c -0.02416,0.03885 -0.07571,0.090402 -0.114559,0.1145585 l -0.07064,0.043922 -1.403342,0.00461 c -1.3333573,0.00438 -1.4071499,0.00284 -1.4797132,-0.030894 z M 10.688305,5.0329356 V 3.3527446 H 9.6763723 8.6644391 v 1.680191 1.6801909 h 1.0119332 1.0119327 z"
     style="fill:#cccccc;stroke-width:0.01909308" />
  <path
     id="path88"
     d="M 4.6739857,5.7011933 V 5.376611 h 1.326969 1.3269689 V 5.7011933 6.0257757 H 6.0009547 4.6739857 Z"
     style="fill:#cccccc;stroke-width:0.01909308" />
  <path
     id="path90"
     d="M 4.6739857,7.0377088 V 6.7131265 h 1.326969 1.3269689 V 7.0377088 7.3622912 H 6.0009547 4.6739857 Z"
     style="fill:#cccccc;stroke-width:0.01909308" />
  <path
     id="path92"
     d="M 4.6739857,8.3742243 V 8.049642 H 8.0057279 11.33747 V 8.3742243 8.6988067 H 8.0057279 4.6739857 Z"
     style="fill:#cccccc;stroke-width:0.01909308" />
  <path
     id="path94"
     d="M 4.6739857,9.6916468 V 9.3670644 H 7.671599 10.669212 V 9.6916468 10.016229 H 7.671599 4.6739857 Z"
     style="fill:#cccccc;stroke-width:0.01909308" />
  <path
     id="path96"
     d="M 4.6739857,11.028162 V 10.70358 H 8.0057279 11.33747 v 0.324582 0.324583 H 8.0057279 4.6739857 Z"
     style="fill:#cccccc;stroke-width:0.01909308" />
  <path
     id="path98"
     d="M 4.6739857,12.364678 V 12.040095 H 8.0057279 11.33747 v 0.324583 0.324582 H 8.0057279 4.6739857 Z"
     style="fill:#cccccc;stroke-width:0.01909308" />
</svg>
