<?xml version="1.0" encoding="UTF-8" standalone="no"?>
<svg
   xmlns:dc="http://purl.org/dc/elements/1.1/"
   xmlns:cc="http://creativecommons.org/ns#"
   xmlns:rdf="http://www.w3.org/1999/02/22-rdf-syntax-ns#"
   xmlns:svg="http://www.w3.org/2000/svg"
   xmlns="http://www.w3.org/2000/svg"
   viewBox="0 0 16 16"
   height="16"
   width="16"
   id="svg3776"
   version="1.1">
  <metadata
     id="metadata3782">
    <rdf:RDF>
      <cc:Work
         rdf:about="">
        <dc:format>image/svg+xml</dc:format>
        <dc:type
           rdf:resource="http://purl.org/dc/dcmitype/StillImage" />
        <dc:title></dc:title>
      </cc:Work>
    </rdf:RDF>
  </metadata>
  <defs
     id="defs3780" />
  <g
     transform="matrix(0.66666667,0,0,0.66666667,2.101013e-5,-4e-8)"
     id="g9661">
    <path
       d="m 16.5,9 c 0.128,0 0.256,-0.05 0.353,-0.147 L 21.206,4.5 20.5,3.794 l -4,4 -2,-2 -0.706,0.706 2.353,2.353 C 16.244,8.95 16.372,9 16.5,9 Z"
       id="path9647" />
    <path
       d="M 24,6.5 C 24,2.916 21.084,0 17.5,0 15.956,0 14.538,0.541 13.422,1.441 12.678,1.013 12.056,0.591 11.653,0.244 11.278,-0.081 10.722,-0.081 10.347,0.244 9.503,0.972 7.869,1.916 6.181,2.647 4.168,3.519 2.328,4 1,4 0.731,4 0.475,4.109 0.288,4.3 0.101,4.491 -0.003,4.75 0,5.019 c 0.003,0.119 0.069,2.953 1.381,6.687 0.769,2.187 1.812,4.241 3.1,6.097 1.609,2.325 3.606,4.347 5.937,6.009 0.175,0.125 0.378,0.188 0.581,0.188 0.203,0 0.406,-0.063 0.581,-0.188 2.112,-1.506 3.956,-3.316 5.478,-5.372 1.253,-1.691 2.3,-3.563 3.112,-5.562 v 0 c 0.078,-0.191 0.15,-0.375 0.219,-0.559 2.137,-1.066 3.609,-3.272 3.609,-5.819 z M 17.5,1 C 20.531,1 23,3.469 23,6.5 23,9.531 20.531,12 17.5,12 14.469,12 12,9.531 12,6.5 12,3.469 14.469,1 17.5,1 Z M 15.503,12.687 C 14.359,15.09 12.719,17.334 11,18.843 7.997,16.206 5.425,11.484 5.037,7.905 7.55,7.383 9.371,6.261 11,5.111 11.044,5.142 11.087,5.174 11.131,5.202 11.047,5.621 11,6.055 11,6.499 c 0,2.888 1.894,5.341 4.503,6.188 z M 11,21.756 C 7.431,19.037 4.841,15.459 3.294,11.112 2.507,8.896 2.197,7.006 2.075,5.931 3.825,5.718 5.653,5.053 6.975,4.478 8.503,3.819 9.969,3.009 11,2.265 11.312,2.487 11.666,2.718 12.053,2.952 11.803,3.336 11.591,3.749 11.425,4.183 11.381,4.152 11.338,4.12 11.291,4.086 11.116,3.961 10.885,3.961 10.71,4.086 9.004,5.305 7.11,6.536 4.416,7.002 4.166,7.046 3.988,7.271 4.004,7.524 c 0.119,1.984 0.884,4.362 2.159,6.691 1.25,2.284 2.856,4.297 4.525,5.666 0.091,0.075 0.203,0.112 0.316,0.112 0.113,0 0.225,-0.038 0.316,-0.112 1.988,-1.631 3.903,-4.212 5.178,-6.963 0.328,0.05 0.663,0.078 1.003,0.078 0.153,0 0.303,-0.006 0.453,-0.016 -1.587,3.525 -3.922,6.469 -6.953,8.775 z"
       id="path9649" />
  </g>
</svg>
