<?xml version="1.0" encoding="UTF-8" standalone="no"?>
<svg
   xmlns:dc="http://purl.org/dc/elements/1.1/"
   xmlns:cc="http://creativecommons.org/ns#"
   xmlns:rdf="http://www.w3.org/1999/02/22-rdf-syntax-ns#"
   xmlns:svg="http://www.w3.org/2000/svg"
   xmlns="http://www.w3.org/2000/svg"
   viewBox="0 0 16 16"
   height="16"
   width="16"
   id="svg3776"
   version="1.1">
  <metadata
     id="metadata3782">
    <rdf:RDF>
      <cc:Work
         rdf:about="">
        <dc:format>image/svg+xml</dc:format>
        <dc:type
           rdf:resource="http://purl.org/dc/dcmitype/StillImage" />
        <dc:title></dc:title>
      </cc:Work>
    </rdf:RDF>
  </metadata>
  <defs
     id="defs3780" />
  <g
     transform="scale(0.66666667)"
     id="g9765">
    <path
       d="m 19,3 h -1 v 2 h 1 V 22 H 5 V 5 H 6 V 3 H 5 C 3.897,3 3,3.897 3,5 v 17 c 0,1.103 0.897,2 2,2 h 14 c 1.103,0 2,-0.897 2,-2 V 5 C 21,3.897 20.103,3 19,3 Z"
       id="path9745" />
    <path
       d="m 7.5,5 h 9 C 16.775,5 17,4.775 17,4.5 v -1 C 17,2.672 16.328,2 15.5,2 H 14.941 C 14.822,1.506 14.525,1.053 14.082,0.697 13.519,0.247 12.782,0 12.001,0 11.22,0 10.482,0.247 9.92,0.697 9.473,1.053 9.179,1.506 9.061,2 H 8.502 c -0.828,0 -1.5,0.672 -1.5,1.5 v 1 c 0,0.275 0.225,0.5 0.5,0.5 z M 8,3.5 C 8,3.225 8.225,3 8.5,3 h 1 C 9.775,3 10,2.775 10,2.5 10,2.122 10.194,1.756 10.544,1.478 10.928,1.169 11.447,1 12,1 12.553,1 13.072,1.169 13.456,1.478 13.806,1.759 14,2.122 14,2.5 14,2.775 14.225,3 14.5,3 h 1 C 15.775,3 16,3.225 16,3.5 V 4 H 8 Z"
       id="path9747" />
    <path
       d="m 10,9 h 8 v 1 h -8 z m 0,4 h 8 v 1 h -8 z m 0,4 h 8 v 1 h -8 z"
       id="path9749" />
    <path
       d="M 7.5,11 C 8.328,11 9,10.328 9,9.5 9,8.672 8.328,8 7.5,8 6.672,8 6,8.672 6,9.5 6,10.328 6.672,11 7.5,11 Z m 0,-2 C 7.775,9 8,9.225 8,9.5 8,9.775 7.775,10 7.5,10 7.225,10 7,9.775 7,9.5 7,9.225 7.225,9 7.5,9 Z m 0,3 C 6.672,12 6,12.672 6,13.5 6,14.328 6.672,15 7.5,15 8.328,15 9,14.328 9,13.5 9,12.672 8.328,12 7.5,12 Z m 0,2 C 7.225,14 7,13.775 7,13.5 7,13.225 7.225,13 7.5,13 7.775,13 8,13.225 8,13.5 8,13.775 7.775,14 7.5,14 Z m 0,2 C 6.672,16 6,16.672 6,17.5 6,18.328 6.672,19 7.5,19 8.328,19 9,18.328 9,17.5 9,16.672 8.328,16 7.5,16 Z m 0,2 C 7.225,18 7,17.775 7,17.5 7,17.225 7.225,17 7.5,17 7.775,17 8,17.225 8,17.5 8,17.775 7.775,18 7.5,18 Z"
       id="path9751" />
  </g>
</svg>
