<?xml version="1.0" encoding="UTF-8" standalone="no"?>
<svg
   xmlns:dc="http://purl.org/dc/elements/1.1/"
   xmlns:cc="http://creativecommons.org/ns#"
   xmlns:rdf="http://www.w3.org/1999/02/22-rdf-syntax-ns#"
   xmlns:svg="http://www.w3.org/2000/svg"
   xmlns="http://www.w3.org/2000/svg"
   version="1.1"
   id="svg3776"
   width="16"
   height="16"
   viewBox="0 0 16 16">
  <metadata
     id="metadata3782">
    <rdf:RDF>
      <cc:Work
         rdf:about="">
        <dc:format>image/svg+xml</dc:format>
        <dc:type
           rdf:resource="http://purl.org/dc/dcmitype/StillImage" />
        <dc:title></dc:title>
      </cc:Work>
    </rdf:RDF>
  </metadata>
  <defs
     id="defs3780" />
  <path
     id="path9847"
     d="M 15.666667,2.6666332 H 14.666666 V 1.9999666 c 0,-0.2039999 -0.094,-0.398 -0.254,-0.5226667 C 14.252,1.3499666 14.042,1.3046333 13.843999,1.3519667 13.194,1.5079666 12.475333,1.5746333 11.781333,1.6373 10.889334,1.7186329 10.046,1.7953 9.296,2.0519666 8.766666,2.2332999 8.338,2.4872999 8,2.8206332 7.664667,2.4872999 7.235333,2.2332999 6.7039998,2.0519666 5.9539998,1.7959667 5.1099998,1.7186333 4.2186666,1.6373 3.5246665,1.5746336 2.8059999,1.5079666 2.156,1.3519667 c -0.198,-0.048 -0.408,-0.002 -0.5686666,0.1253332 -0.1606667,0.1253334 -0.254,0.3186668 -0.254,0.5226667 v 0.6666666 h -1 C 0.15,2.6666332 0,2.8166333 0,2.9999666 v 9.3333314 c 0,0.164667 0.1206667,0.304001 0.2833334,0.329334 0.502,0.07533 1.1126666,0.127334 1.7559999,0.181334 1.9539999,0.162667 4.6273331,0.387333 4.6273331,1.489333 0,0.183334 0.15,0.333334 0.3333334,0.333334 H 9 c 0.183333,0 0.333333,-0.15 0.333333,-0.333334 0,-1.102 2.672667,-1.327333 4.627333,-1.489333 0.646,-0.054 1.254001,-0.104 1.756,-0.181334 C 15.879333,12.637302 16,12.497965 16,12.333298 V 2.9999666 C 16,2.8166333 15.85,2.6666332 15.666667,2.6666332 Z M 11.902,2.9646333 c 0.470667,-0.044 0.951999,-0.087333 1.431333,-0.1580001 v 7.3166658 c -0.506,0.08533 -1.035333,0.135334 -1.552,0.181334 -0.891999,0.08133 -1.735333,0.158 -2.485333,0.414667 -0.227334,0.07733 -0.437334,0.168666 -0.629333,0.275332 V 4.1466331 C 9.116667,3.2652999 10.204,3.1219665 11.902,2.9652999 Z M 2.6666666,2.8059666 c 0.4793333,0.072666 0.9606666,0.1166666 1.4313332,0.158 1.7,0.154 2.7853332,0.298 3.2353332,1.1813332 v 6.8459992 c -0.192,-0.105999 -0.3999999,-0.196 -0.6293332,-0.275333 -0.75,-0.255999 -1.594,-0.333333 -2.4853332,-0.414666 -0.5166667,-0.048 -1.046,-0.096 -1.552,-0.181334 V 2.8052999 Z M 15.333333,12.041966 c -0.422667,0.052 -0.914667,0.094 -1.429333,0.137333 -1.116667,0.094 -2.381334,0.2 -3.362667,0.462666 C 9.978667,12.791966 9.558,12.981299 9.253999,13.216633 8.966667,13.437299 8.785333,13.699966 8.708,13.999966 H 7.293333 c -0.07533,-0.3 -0.2579999,-0.562667 -0.5459999,-0.783333 -0.304,-0.235334 -0.7273333,-0.422667 -1.2873333,-0.574668 C 4.4786665,12.377299 3.2119999,12.273299 2.0973334,12.179299 1.5826667,12.135299 1.0913333,12.095966 0.6680001,12.041966 V 3.3339665 h 0.6666666 v 7.3333325 c 0,0.308 0.2106667,0.575334 0.5106666,0.648 0.746,0.179333 1.5126666,0.25 2.2539999,0.316666 1.7686666,0.160667 2.8726665,0.310667 3.2873328,1.294001 0.104001,0.248 0.346,0.408 0.614667,0.408 0.268666,0 0.510667,-0.160667 0.614666,-0.408 0.414667,-0.983334 1.518668,-1.131334 3.287334,-1.294001 0.742,-0.06667 1.508,-0.137333 2.254,-0.316666 0.3,-0.07267 0.510666,-0.339333 0.510666,-0.648 V 3.3339665 h 0.666668 v 8.7079995 z"
     style="stroke-width:0.66666663" />
  <path
     id="path4123"
     d="m 6.779661,14.535593 c -0.044746,-0.04475 -0.081356,-0.137786 -0.081356,-0.206756 0,-0.222821 -0.2009456,-0.522221 -0.459559,-0.684724 C 5.6076661,13.247568 4.6596512,13.058388 2.1008058,12.81837 1.1196388,12.726338 0.25777445,12.619414 0.18555158,12.580761 0.05754509,12.512254 0.05423729,12.388496 0.05423729,7.6677966 c 0,-5.5788712 -0.09269067,-4.9830508 0.775204,-4.9830508 H 1.3423729 L 1.3426237,2.2949153 C 1.342922,1.8328374 1.5180904,1.4909506 1.7894284,1.4228491 c 0.099043,-0.024858 0.5347348,0.0056 0.9682047,0.067689 0.4334725,0.062087 1.2457567,0.1589213 1.8050788,0.2151869 1.605565,0.1615134 2.4214725,0.3943388 3.1064569,0.8864509 L 8.002598,2.8317214 8.2997525,2.6183212 c 0.7651594,-0.549496 1.4868746,-0.7453727 3.5171965,-0.9545828 0.745763,-0.076845 1.477966,-0.1676403 1.627119,-0.2017663 0.149152,-0.034126 0.398135,-0.062793 0.553295,-0.063705 0.232856,-0.00137 0.312752,0.03476 0.457628,0.2069342 0.14896,0.177029 0.175517,0.2744846 0.175517,0.6440678 v 0.4354763 h 0.565764 c 0.462001,0 0.586342,0.022739 0.677966,0.1239824 0.102157,0.112882 0.112203,0.5489801 0.112203,4.8708483 0,4.4622659 -0.0072,4.7534039 -0.12048,4.8558989 -0.09159,0.08289 -0.485745,0.14253 -1.644067,0.248762 -2.710339,0.248568 -3.667123,0.423735 -4.3527306,0.796889 -0.3462827,0.188471 -0.4769146,0.344304 -0.5554149,0.662563 -0.02754,0.111655 -0.081864,0.241316 -0.1207207,0.288135 -0.097843,0.117893 -2.2958102,0.121326 -2.4133668,0.0038 z m 2.0585858,-0.765689 c 0.4197627,-0.884585 1.6852092,-1.271119 5.1142952,-1.562173 0.689831,-0.05855 1.292373,-0.119134 1.338983,-0.134628 0.06663,-0.02215 0.08475,-0.963393 0.08475,-4.4031786 V 3.2949153 H 15.00339 14.630508 v 3.7928295 3.7928292 l -0.153501,0.178456 c -0.194421,0.226028 -0.621909,0.328324 -1.973091,0.472151 C 9.5611783,11.844422 9.1671268,11.976896 8.6161641,12.83819 8.2035939,13.483141 7.755602,13.466689 7.345461,12.791524 6.8738902,12.015235 6.3299561,11.816258 4.0881356,11.599961 2.8364012,11.479191 1.940404,11.327179 1.6767967,11.190862 1.5755253,11.138493 1.4588506,10.998641 1.4175198,10.880079 1.3660875,10.73254 1.3423729,9.5016739 1.3423729,6.9797137 V 3.2949153 H 1.0033898 0.66440678 v 4.3959546 4.3959541 l 1.00000002,0.08314 c 2.7751773,0.230726 3.8718258,0.433167 4.7366994,0.874393 0.2989182,0.152496 0.7317752,0.593997 0.8032945,0.819335 0.042544,0.134042 0.092073,0.143088 0.7834278,0.143088 H 8.725842 Z M 7.3762712,7.5818397 V 4.1399504 L 7.21452,3.9019119 C 7.02188,3.618417 6.5344569,3.3388089 5.9820946,3.1949369 5.7615586,3.1374945 4.9858765,3.0293075 4.2583566,2.9545212 3.5308367,2.8797349 2.8669492,2.8031141 2.7830508,2.7842526 L 2.6305085,2.7499591 v 3.6908201 3.6908198 l 0.1864407,0.03862 c 0.1025423,0.02124 0.659322,0.08569 1.2372881,0.143217 1.689937,0.168202 2.6224299,0.358823 3.0932278,0.632322 0.069911,0.04061 0.1499925,0.07477 0.1779586,0.0759 0.027966,0.0011 0.050847,-1.5467884 0.050847,-3.4398273 z m 2.5278793,3.0024943 c 0.2317005,-0.05353 1.0314425,-0.159668 1.7772055,-0.23587 0.745763,-0.0762 1.424576,-0.154326 1.508475,-0.173611 l 0.152542,-0.03506 V 6.4608457 2.7819019 L 12.172881,2.9003483 C 10.014585,3.1189411 9.3068685,3.3136728 8.8724156,3.8084873 L 8.6644068,4.0453961 V 7.5298129 11.01423 L 9.073642,10.847942 c 0.2250794,-0.09146 0.5988082,-0.210081 0.8305085,-0.263608 z"
     style="fill:#cccccc;stroke-width:0.06779661" />
</svg>
