<?xml version="1.0" encoding="UTF-8" standalone="no"?>
<svg
   xmlns:dc="http://purl.org/dc/elements/1.1/"
   xmlns:cc="http://creativecommons.org/ns#"
   xmlns:rdf="http://www.w3.org/1999/02/22-rdf-syntax-ns#"
   xmlns:svg="http://www.w3.org/2000/svg"
   xmlns="http://www.w3.org/2000/svg"
   version="1.1"
   id="svg3776"
   width="16"
   height="16"
   viewBox="0 0 16 16">
  <metadata
     id="metadata3782">
    <rdf:RDF>
      <cc:Work
         rdf:about="">
        <dc:format>image/svg+xml</dc:format>
        <dc:type
           rdf:resource="http://purl.org/dc/dcmitype/StillImage" />
        <dc:title></dc:title>
      </cc:Work>
    </rdf:RDF>
  </metadata>
  <defs
     id="defs3780" />
  <g
     id="g9948"
     transform="matrix(0.66666667,0,0,0.66666667,-6.6670667e-4,9.4147399e-4)">
    <path
       id="path9934"
       d="M 23.5,18 H 20.644 L 21.9,17.372 c 0.987,-0.494 1.387,-1.697 0.894,-2.681 L 16.997,3.104 C 16.76,2.626 16.347,2.27 15.841,2.101 15.335,1.932 14.791,1.97 14.316,2.21 L 12.104,3.316 C 11.117,3.81 10.716,5.013 11.21,5.997 V 6 H 7.001 V 3 c 0,-0.553 -0.447,-1 -1,-1 h -4 c -0.553,0 -1,0.447 -1,1 v 14 c 0,0.553 0.447,1 1,1 h -1.5 c -0.275,0 -0.5,0.225 -0.5,0.5 v 3 c 0,0.275 0.225,0.5 0.5,0.5 h 23 c 0.275,0 0.5,-0.225 0.5,-0.5 v -3 c 0,-0.275 -0.225,-0.5 -0.5,-0.5 z m -4.709,-1.309 -4.016,-8.034 2.212,-1.106 4.016,8.034 -2.213,1.106 z M 15.209,3.997 16.537,6.656 14.324,7.762 12.996,5.103 15.208,3.997 Z m 1.794,13.587 c 0.075,0.153 0.169,0.291 0.278,0.416 H 12 c 0.553,0 1,-0.447 1,-1 V 9.581 Z M 5,16 H 3 V 15 H 5 Z M 5,14 H 3 V 6 h 2 z m 6,-6 v 8 H 7 V 8 Z M 5,4 V 5 H 3 V 4 Z M 23,21 H 1 v -2 h 22 z" />
    <path
       id="path9936"
       d="m 8,9 h 2 v 1 H 8 Z" />
  </g>
  <path
     id="path4195"
     d="m 0.13559322,14.535593 c -0.11418788,-0.114188 -0.11418788,-2.299371 0,-2.413559 0.0497535,-0.04975 0.29335573,-0.08145 0.62711864,-0.08161 L 1.3084746,12.040153 1.1050847,11.915801 C 0.67180034,11.650908 0.70026278,11.983004 0.67765363,6.9286083 0.66629532,4.3893992 0.67636617,2.1783729 0.70003336,2.0152165 0.72588929,1.8369714 0.80731715,1.6543162 0.90404386,1.5575894 1.0641979,1.3974354 1.0730552,1.3966102 2.6318839,1.3966102 c 0.992739,0 1.6170141,0.026841 1.7037364,0.073254 0.2598775,0.1390822 0.3287865,0.4642939 0.3287865,1.5516875 V 4.040678 h 1.4309823 c 1.3377126,0 1.4275485,-0.00773 1.3782984,-0.1186441 C 7.3623702,3.6713468 7.3632441,3.2129943 7.4755993,2.9187954 7.6291315,2.5167767 7.8670814,2.3335837 8.8933525,1.8272937 9.6532712,1.4524032 9.8157519,1.3966552 10.14759,1.3969575 c 0.41685,3.797e-4 0.771758,0.1667524 1.011633,0.4742289 0.07272,0.09322 1.021587,1.9480756 2.108584,4.1219005 1.341243,2.6822785 1.989652,4.0494001 2.017727,4.2542281 0.05305,0.387063 -0.115763,0.845524 -0.399143,1.083972 -0.114923,0.0967 -0.425443,0.288247 -0.690044,0.425657 l -0.481093,0.249836 1.070435,0.0339 c 0.851236,0.02696 1.083566,0.05472 1.134556,0.135593 0.08761,0.138954 0.08415,2.144858 -0.004,2.309542 -0.06876,0.128486 -0.228101,0.131136 -7.8847448,0.131136 -5.9875988,0 -7.83358423,-0.01902 -7.89591998,-0.08136 z M 15.376271,13.328814 V 12.650847 H 8.020339 0.66440678 v 0.677967 0.677966 H 8.020339 15.376271 Z m -3.864407,-1.322357 c 0,-0.01882 -0.63305,-1.292551 -1.406779,-2.8305085 L 8.6983051,6.379661 8.6644068,8.9625708 c -0.036929,2.8138032 -0.019292,2.6956122 -0.440678,2.9532472 -0.2006142,0.122656 -0.1795674,0.124356 1.5423729,0.124606 0.9601693,1.36e-4 1.7457623,-0.01515 1.7457623,-0.03397 z m 1.763842,-1.220582 c 0.409548,-0.205397 0.744633,-0.3886 0.744633,-0.407119 0,-0.03349 -2.641568,-5.3358654 -2.678312,-5.3761276 -0.02612,-0.028619 -1.5250778,0.7254462 -1.5250778,0.7672043 0,0.045792 2.6727408,5.3894893 2.6956448,5.3894893 0.01016,0 0.353563,-0.168051 0.763112,-0.373447 z M 3.3628651,10.328814 3.3423729,9.9728814 H 2.6644068 1.9864407 l -0.020492,0.3559326 -0.020492,0.355932 H 2.6644068 3.3833572 Z M 7.3762712,8.0067797 V 5.3288136 H 6.020339 4.6644068 V 8.0067797 10.684746 H 6.020339 7.3762712 Z M 3.3600999,6.6677966 3.3778271,3.9728814 H 2.6651847 1.9525424 V 6.639548 c 0,1.4666667 0.02137,2.6880364 0.047489,2.7141557 0.026119,0.026119 0.3388307,0.03883 0.6949152,0.028248 L 3.342373,9.3627117 Z M 10.324609,4.8387811 c 0.391973,-0.1949416 0.712679,-0.3784282 0.712679,-0.4077478 0,-0.02932 -0.198582,-0.4495992 -0.441292,-0.9339545 L 10.154703,2.6164328 9.4095553,2.9901387 c -0.4098319,0.2055382 -0.7451485,0.403649 -0.7451485,0.4402462 0,0.1093588 0.8406359,1.7628354 0.8962339,1.7628354 0.028209,0 0.3719946,-0.1594977 0.7639683,-0.3544392 z M 3.3762712,2.9898305 V 2.6169492 H 2.6644068 1.9525424 v 0.3728813 0.3728814 h 0.7118644 0.7118644 z"
     style="fill:#cccccc;stroke-width:0.06779661" />
  <path
     id="path4197"
     d="M 5.3423729,6.3118644 V 6.0067797 H 5.9864407 6.6305085 V 6.3118644 6.6169492 H 5.9864407 5.3423729 Z"
     style="fill:#cccccc;stroke-width:0.06779661" />
</svg>
