<?xml version="1.0" encoding="UTF-8" standalone="no"?>
<svg
   xmlns:dc="http://purl.org/dc/elements/1.1/"
   xmlns:cc="http://creativecommons.org/ns#"
   xmlns:rdf="http://www.w3.org/1999/02/22-rdf-syntax-ns#"
   xmlns:svg="http://www.w3.org/2000/svg"
   xmlns="http://www.w3.org/2000/svg"
   xmlns:sodipodi="http://sodipodi.sourceforge.net/DTD/sodipodi-0.dtd"
   xmlns:inkscape="http://www.inkscape.org/namespaces/inkscape"
   viewBox="0 0 16 16"
   height="16"
   width="16"
   id="svg3776"
   version="1.1"
   sodipodi:docname="sheild.svg"
   inkscape:version="0.92.5 (2060ec1f9f, 2020-04-08)">
  <sodipodi:namedview
     pagecolor="#ffffff"
     bordercolor="#666666"
     borderopacity="1"
     objecttolerance="10"
     gridtolerance="10"
     guidetolerance="10"
     inkscape:pageopacity="0"
     inkscape:pageshadow="2"
     inkscape:window-width="1848"
     inkscape:window-height="1016"
     id="namedview8"
     showgrid="false"
     inkscape:zoom="14.75"
     inkscape:cx="8"
     inkscape:cy="8"
     inkscape:window-x="72"
     inkscape:window-y="27"
     inkscape:window-maximized="1"
     inkscape:current-layer="svg3776" />
  <metadata
     id="metadata3782">
    <rdf:RDF>
      <cc:Work
         rdf:about="">
        <dc:format>image/svg+xml</dc:format>
        <dc:type
           rdf:resource="http://purl.org/dc/dcmitype/StillImage" />
        <dc:title />
      </cc:Work>
    </rdf:RDF>
  </metadata>
  <defs
     id="defs3780" />
  <g
     transform="matrix(0.72732856,0,0,0.66673612,-0.72801,-0.00166686)"
     id="g9240">
    <path
       d="M 22.713,4.3 C 22.525,4.109 22.269,4 22.001,4 20.673,4 18.832,3.519 16.82,2.644 15.132,1.913 13.498,0.969 12.654,0.244 12.279,-0.078 11.723,-0.078 11.348,0.244 10.504,0.972 8.87,1.916 7.182,2.647 5.169,3.519 3.329,4 2.001,4 1.732,4 1.476,4.109 1.289,4.3 1.102,4.491 0.998,4.75 1.001,5.019 c 0.003,0.119 0.069,2.953 1.381,6.687 0.769,2.187 1.812,4.241 3.1,6.097 1.609,2.325 3.606,4.347 5.937,6.009 C 11.594,23.937 11.797,24 12,24 c 0.203,0 0.406,-0.063 0.581,-0.188 2.328,-1.662 4.325,-3.684 5.937,-6.009 1.287,-1.856 2.328,-3.909 3.1,-6.097 C 22.931,7.972 22.999,5.137 22.999,5.019 23.005,4.75 22.902,4.491 22.711,4.3 Z m -3.007,6.812 C 18.159,15.462 15.569,19.04 12,21.756 8.431,19.037 5.841,15.459 4.294,11.112 3.507,8.896 3.197,7.006 3.075,5.931 4.825,5.718 6.653,5.053 7.975,4.478 9.503,3.819 10.969,3.009 12,2.266 c 1.031,0.741 2.497,1.55 4.022,2.212 1.322,0.575 3.15,1.241 4.9,1.453 -0.119,1.075 -0.428,2.969 -1.216,5.181 z"
       id="path9226"
       inkscape:connector-curvature="0" />
    <path
       d="m 11.709,4.094 c -1.706,1.219 -3.6,2.45 -6.294,2.916 -0.25,0.044 -0.428,0.269 -0.412,0.522 0.119,1.984 0.884,4.362 2.159,6.691 1.25,2.284 2.856,4.297 4.525,5.666 0.094,0.075 0.206,0.112 0.319,0.112 0.113,0 0.225,-0.038 0.319,-0.112 C 13.994,18.52 15.6,16.508 16.85,14.223 18.125,11.895 18.891,9.517 19.009,7.532 19.025,7.279 18.847,7.054 18.596,7.01 15.89,6.541 13.996,5.313 12.29,4.094 12.115,3.969 11.884,3.969 11.709,4.094 Z M 12,18.844 C 8.997,16.207 6.425,11.485 6.038,7.906 8.551,7.384 10.372,6.262 12,5.112 c 1.631,1.15 3.453,2.272 5.962,2.794 -0.387,3.578 -2.959,8.3 -5.962,10.938 z"
       id="path9228"
       inkscape:connector-curvature="0" />
  </g>
</svg>
