<?xml version="1.0" encoding="UTF-8" standalone="no"?>
<svg
   xmlns:dc="http://purl.org/dc/elements/1.1/"
   xmlns:cc="http://creativecommons.org/ns#"
   xmlns:rdf="http://www.w3.org/1999/02/22-rdf-syntax-ns#"
   xmlns:svg="http://www.w3.org/2000/svg"
   xmlns="http://www.w3.org/2000/svg"
   xmlns:sodipodi="http://sodipodi.sourceforge.net/DTD/sodipodi-0.dtd"
   xmlns:inkscape="http://www.inkscape.org/namespaces/inkscape"
   viewBox="0 0 16 16"
   height="16"
   width="16"
   id="svg3776"
   version="1.1"
   sodipodi:docname="bluesheild.svg"
   inkscape:version="0.92.5 (2060ec1f9f, 2020-04-08)">
  <sodipodi:namedview
     pagecolor="#ffffff"
     bordercolor="#666666"
     borderopacity="1"
     objecttolerance="10"
     gridtolerance="10"
     guidetolerance="10"
     inkscape:pageopacity="0"
     inkscape:pageshadow="2"
     inkscape:window-width="1848"
     inkscape:window-height="1016"
     id="namedview8"
     showgrid="false"
     inkscape:zoom="14.75"
     inkscape:cx="8"
     inkscape:cy="8"
     inkscape:window-x="72"
     inkscape:window-y="27"
     inkscape:window-maximized="1"
     inkscape:current-layer="g9240" />
  <metadata
     id="metadata3782">
    <rdf:RDF>
      <cc:Work
         rdf:about="">
        <dc:format>image/svg+xml</dc:format>
        <dc:type
           rdf:resource="http://purl.org/dc/dcmitype/StillImage" />
        <dc:title></dc:title>
      </cc:Work>
    </rdf:RDF>
  </metadata>
  <defs
     id="defs3780" />
  <g
     transform="matrix(0.72732856,0,0,0.66673612,-0.72801,-0.00166686)"
     id="g9240">
    <path
       style="fill:#2a7fff;stroke-width:0.12101322"
       d="M 10.984723,23.220024 C 9.6234569,22.112747 7.0214182,19.266112 5.9948033,17.761042 3.6753769,14.360646 2.0027554,10.325241 1.2647814,6.3492836 1.1039742,5.482908 0.97240459,4.7159443 0.97240459,4.6449199 c 0,-0.071025 0.35193361,-0.1942706 0.78207471,-0.2738802 C 2.9695277,4.1461611 4.9593454,3.5421773 6.3600307,2.9730832 7.7428193,2.4112604 10.537981,0.97208338 11.442116,0.35641116 l 0.563431,-0.38366913 0.713773,0.47304015 c 2.372816,1.57254172 6.28324,3.23294602 8.974155,3.81051332 l 1.314031,0.2820385 -0.07948,0.7025069 C 22.884306,5.6272198 22.677528,6.6827437 22.468515,7.5864498 21.02286,13.837043 17.65493,19.37644 12.896461,23.330077 l -0.878797,0.73016 z"
       id="path51"
       inkscape:connector-curvature="0" />
    <path
       style="fill:#3771c8;stroke-width:0.06779661"
       d="M 7.3762712,15.529938 C 6.6159188,14.947364 5.4317331,13.831947 4.5596147,12.876852 2.345277,10.451835 0.73430007,7.1080508 0.09848282,3.6172153 L 0.00283114,3.0920576 0.24887319,3.0264273 C 0.38419633,2.9903306 0.95254237,2.8501791 1.5118644,2.7149795 2.0711864,2.5797797 2.8949153,2.3472259 3.3423729,2.1981931 4.3140068,1.8745751 6.2606717,1.0050865 7.2690854,0.44430527 c 0.399198,-0.22199502 0.7366448,-0.4036273 0.7498814,-0.4036273 0.013237,0 0.2630285,0.1422505 0.5550922,0.31611223 1.763777,1.0499518 4.575215,2.1214483 6.648973,2.5340592 l 0.762015,0.1516163 -0.03986,0.2787672 c -0.154116,1.0777984 -0.654213,2.8942 -1.115899,4.0530539 -0.991073,2.487642 -2.363375,4.5472642 -4.328807,6.4968992 -0.8866854,0.879559 -2.3361749,2.10284 -2.4895044,2.10099 -0.032138,-4.07e-4 -0.3177553,-0.199394 -0.6347044,-0.442238 z"
       id="path101"
       inkscape:connector-curvature="0"
       transform="matrix(1.3748944,0,0,1.4998437,1.0009369,0.00250003)" />
  </g>
</svg>
