<?xml version="1.0" encoding="UTF-8" standalone="no"?>
<svg
   xmlns:dc="http://purl.org/dc/elements/1.1/"
   xmlns:cc="http://creativecommons.org/ns#"
   xmlns:rdf="http://www.w3.org/1999/02/22-rdf-syntax-ns#"
   xmlns:svg="http://www.w3.org/2000/svg"
   xmlns="http://www.w3.org/2000/svg"
   xmlns:sodipodi="http://sodipodi.sourceforge.net/DTD/sodipodi-0.dtd"
   xmlns:inkscape="http://www.inkscape.org/namespaces/inkscape"
   viewBox="0 0 16 16"
   height="16"
   width="16"
   id="svg3776"
   version="1.1"
   sodipodi:docname="sheild_dark.svg"
   inkscape:version="0.92.5 (2060ec1f9f, 2020-04-08)">
  <sodipodi:namedview
     pagecolor="#ffffff"
     bordercolor="#666666"
     borderopacity="1"
     objecttolerance="10"
     gridtolerance="10"
     guidetolerance="10"
     inkscape:pageopacity="0"
     inkscape:pageshadow="2"
     inkscape:window-width="1848"
     inkscape:window-height="1016"
     id="namedview8"
     showgrid="false"
     inkscape:zoom="14.75"
     inkscape:cx="8"
     inkscape:cy="8"
     inkscape:window-x="72"
     inkscape:window-y="27"
     inkscape:window-maximized="1"
     inkscape:current-layer="svg3776" />
  <metadata
     id="metadata3782">
    <rdf:RDF>
      <cc:Work
         rdf:about="">
        <dc:format>image/svg+xml</dc:format>
        <dc:type
           rdf:resource="http://purl.org/dc/dcmitype/StillImage" />
        <dc:title></dc:title>
      </cc:Work>
    </rdf:RDF>
  </metadata>
  <defs
     id="defs3780" />
  <g
     transform="matrix(0.72732856,0,0,0.66673612,-0.72801,-0.00166686)"
     id="g9240">
    <path
       d="M 22.713,4.3 C 22.525,4.109 22.269,4 22.001,4 20.673,4 18.832,3.519 16.82,2.644 15.132,1.913 13.498,0.969 12.654,0.244 12.279,-0.078 11.723,-0.078 11.348,0.244 10.504,0.972 8.87,1.916 7.182,2.647 5.169,3.519 3.329,4 2.001,4 1.732,4 1.476,4.109 1.289,4.3 1.102,4.491 0.998,4.75 1.001,5.019 c 0.003,0.119 0.069,2.953 1.381,6.687 0.769,2.187 1.812,4.241 3.1,6.097 1.609,2.325 3.606,4.347 5.937,6.009 C 11.594,23.937 11.797,24 12,24 c 0.203,0 0.406,-0.063 0.581,-0.188 2.328,-1.662 4.325,-3.684 5.937,-6.009 1.287,-1.856 2.328,-3.909 3.1,-6.097 C 22.931,7.972 22.999,5.137 22.999,5.019 23.005,4.75 22.902,4.491 22.711,4.3 Z m -3.007,6.812 C 18.159,15.462 15.569,19.04 12,21.756 8.431,19.037 5.841,15.459 4.294,11.112 3.507,8.896 3.197,7.006 3.075,5.931 4.825,5.718 6.653,5.053 7.975,4.478 9.503,3.819 10.969,3.009 12,2.266 c 1.031,0.741 2.497,1.55 4.022,2.212 1.322,0.575 3.15,1.241 4.9,1.453 -0.119,1.075 -0.428,2.969 -1.216,5.181 z"
       id="path9226"
       inkscape:connector-curvature="0" />
    <path
       d="m 11.709,4.094 c -1.706,1.219 -3.6,2.45 -6.294,2.916 -0.25,0.044 -0.428,0.269 -0.412,0.522 0.119,1.984 0.884,4.362 2.159,6.691 1.25,2.284 2.856,4.297 4.525,5.666 0.094,0.075 0.206,0.112 0.319,0.112 0.113,0 0.225,-0.038 0.319,-0.112 C 13.994,18.52 15.6,16.508 16.85,14.223 18.125,11.895 18.891,9.517 19.009,7.532 19.025,7.279 18.847,7.054 18.596,7.01 15.89,6.541 13.996,5.313 12.29,4.094 12.115,3.969 11.884,3.969 11.709,4.094 Z M 12,18.844 C 8.997,16.207 6.425,11.485 6.038,7.906 8.551,7.384 10.372,6.262 12,5.112 c 1.631,1.15 3.453,2.272 5.962,2.794 -0.387,3.578 -2.959,8.3 -5.962,10.938 z"
       id="path9228"
       inkscape:connector-curvature="0" />
  </g>
  <path
     style="fill:#cccccc;stroke-width:0.06779661"
     d="M 7.3297092,15.658335 C 3.6741435,13.169023 1.1588542,9.4444583 0.29548104,5.2422616 0.10006753,4.2911479 0.01042882,3.4108951 0.08054079,3.1315467 0.14609776,2.8703469 0.49197064,2.6853035 0.91520244,2.6849992 2.4199272,2.6839174 5.4061765,1.5994965 7.3002244,0.36635471 7.6186983,0.15900831 7.8750963,0.04067797 8.0058997,0.04067797 c 0.1364135,0 0.419021,0.13835084 0.8410108,0.41171791 1.3409195,0.86865382 3.5943415,1.79215882 5.1056315,2.09240682 0.205085,0.040744 0.656437,0.1001055 1.003004,0.131914 0.688591,0.0632 0.917367,0.1878535 0.995208,0.5422592 0.05764,0.2624242 -0.136825,1.6181229 -0.365848,2.5505156 -0.730212,2.9728102 -2.220523,5.6280125 -4.359396,7.7668865 -0.920468,0.920467 -2.2699066,2.00893 -2.8848456,2.326927 -0.3303675,0.17084 -0.5136461,0.133681 -1.0109552,-0.20497 z m 1.9024739,-2.06624 C 11.195927,11.95302 12.791015,9.6770868 13.716833,7.1932203 14.008936,6.4095416 14.396788,4.9273696 14.462976,4.3418524 L 14.508516,3.9389831 13.705105,3.7850473 C 12.232656,3.5029214 9.9494176,2.6272519 8.5712414,1.8161029 L 7.9979797,1.4786997 7.6057017,1.7150047 C 6.0823308,2.6326723 3.7909094,3.5133169 2.1373108,3.8166298 l -0.6626893,0.1215545 0.042198,0.3054841 c 0.08295,0.6004955 0.3707518,1.7882763 0.5972363,2.4648378 1.0050407,3.0022891 2.8505374,5.5606288 5.3885529,7.4699408 l 0.4941363,0.371731 0.3083864,-0.220852 c 0.169613,-0.121468 0.5867866,-0.453222 0.9270517,-0.737231 z"
     id="path10"
     inkscape:connector-curvature="0" />
  <path
     style="fill:#cccccc;stroke-width:0.06779661"
     d="M 7.9186441,13.276362 C 7.7229734,13.211236 6.8866606,12.486439 6.3811738,11.943902 4.7351206,10.177201 3.4731407,7.8791982 3.0757504,5.9248921 2.9458659,5.2861393 2.9401647,4.8951791 3.0592927,4.7963116 3.1086834,4.7553209 3.3756326,4.6746866 3.6525131,4.6171242 4.8016251,4.378228 5.8859558,3.928704 7.1665872,3.1603172 7.6025231,2.8987529 7.9809212,2.6847458 8.0074719,2.6847458 c 0.026551,0 0.4216634,0.2243493 0.8780281,0.498554 1.310444,0.7873746 2.398043,1.2279647 3.629096,1.4701595 0.592901,0.1166461 0.607816,0.1472891 0.468651,0.9628217 -0.300578,1.7614515 -1.312227,3.8602268 -2.672348,5.544076 -0.4888963,0.605261 -1.8315033,1.917975 -2.1007462,2.053975 -0.1043976,0.05273 -0.2355765,0.08065 -0.2915087,0.06203 z M 8.6750037,11.989831 C 10.449649,10.28098 11.897979,7.7774701 12.284014,5.7514786 l 0.09327,-0.4895251 -0.28017,-0.070074 C 10.801646,4.8678645 9.7884644,4.4493053 8.6851987,3.7823679 L 7.9941263,3.3646062 7.4615448,3.6949237 C 6.4071287,4.3488932 5.3506353,4.8152828 4.3172579,5.0829708 3.985787,5.1688357 3.6953275,5.2583448 3.6717924,5.2818799 c -0.023535,0.023535 -0.00516,0.2344012 0.040841,0.4685912 0.3218033,1.638416 1.3897984,3.7131065 2.7394711,5.3217049 0.5080615,0.60553 1.4374321,1.510875 1.5509693,1.510875 0.030728,0 0.3330968,-0.266949 0.6719299,-0.59322 z"
     id="path12"
     inkscape:connector-curvature="0" />
</svg>
